<?xml version="1.0" encoding="utf-8"?>
<!-- Generator: Adobe Illustrator 22.1.0, SVG Export Plug-In . SVG Version: 6.00 Build 0)  -->
<svg version="1.1" id="Layer_1" xmlns="http://www.w3.org/2000/svg" xmlns:xlink="http://www.w3.org/1999/xlink" x="0px" y="0px"
	 viewBox="0 0 512 512" style="enable-background:new 0 0 512 512;" xml:space="preserve">
<g>
	<path d="M443.7,92.4H334.5c-37.6,0-70.2,26-78.4,62.7c-8.3-36.7-40.9-62.7-78.4-62.7H68.5c-20.7,0-37.5,16.8-37.5,37.5v192
		c0,20.7,16.8,37.5,37.5,37.5h70.1c79.8,0,103.7,19.1,115.1,58.6c0.5,2.2,4.1,2.2,4.7,0c11.5-39.5,35.3-58.6,115.1-58.6h70.1
		c20.7,0,37.5-16.8,37.5-37.5v-192C481,109.3,464.4,92.5,443.7,92.4z M220.1,299.7c0,1.5-1.2,2.7-2.7,2.7H92.1
		c-1.5,0-2.7-1.2-2.7-2.7v-17.9c0-1.5,1.2-2.7,2.7-2.7h125.3c1.5,0,2.7,1.2,2.7,2.7L220.1,299.7L220.1,299.7z M220.1,252.1
		c0,1.5-1.2,2.7-2.7,2.7H92.1c-1.5,0-2.7-1.2-2.7-2.7v-17.9c0-1.5,1.2-2.7,2.7-2.7h125.3c1.5,0,2.7,1.2,2.7,2.7L220.1,252.1
		L220.1,252.1z M220.1,204.6c0,1.5-1.2,2.7-2.7,2.7H92.1c-1.5,0-2.7-1.2-2.7-2.7v-17.9c0-1.5,1.2-2.7,2.7-2.7h125.3
		c1.5,0,2.7,1.2,2.7,2.7L220.1,204.6L220.1,204.6z M422.6,299.6c0,1.5-1.2,2.7-2.7,2.7H294.7c-1.5,0-2.7-1.2-2.7-2.7v-17.9
		c0-1.5,1.2-2.7,2.7-2.7H420c1.5,0,2.7,1.2,2.7,2.7L422.6,299.6L422.6,299.6z M422.6,252.1c0,1.5-1.2,2.7-2.7,2.7H294.7
		c-1.5,0-2.7-1.2-2.7-2.7v-17.9c0-1.5,1.2-2.7,2.7-2.7H420c1.5,0,2.7,1.2,2.7,2.7L422.6,252.1L422.6,252.1z M422.6,204.5
		c0,1.5-1.2,2.7-2.7,2.7H294.7c-1.5,0-2.7-1.2-2.7-2.7v-17.8c0-1.5,1.2-2.7,2.7-2.7H420c1.5,0,2.7,1.2,2.7,2.7L422.6,204.5
		L422.6,204.5z"/>
</g>
</svg>
